PathFileType	4	(X/Y/Z)	C:\Users\WrightLab\Desktop\Jo\P4V113.trc
DataRate	CameraRate	NumFrames	NumMarkers	Units	OrigDataRate	OrigDataStartFrame	OrigNumFrames
100.00	100.00	       17	19	mm	100.00	284	       567
Frame#	Time	Headset_Front			Headset_Back			Headset_Left			Headset_Right			Left_Shoulder			Right_Shoulder			Sternum			C7			Left Elbow			Right Elbow			Left Wrist			Right Wrist			Left ASIS			Right ASIS			S2			Left Knee			Right Knee			Left Ankle			Right Ankle			
		X1	Y1	Z1	X2	Y2	Z2	X3	Y3	Z3	X4	Y4	Z4	X5	Y5	Z5	X6	Y6	Z6	X7	Y7	Z7	X8	Y8	Z8	X9	Y9	Z9	X10	Y10	Z10	X11	Y11	Z11	X12	Y12	Z12	X13	Y13	Z13	X14	Y14	Z14	X15	Y15	Z15	X16	Y16	Z16	X17	Y17	Z17	X18	Y18	Z18	X19	Y19	Z19	

284	2.830	145.51631	1655.34851	1322.69470							45.18869	1681.58960	1211.50635	309.67365	1512.97302	1087.24609	3.64580	1512.07275	1109.15881	178.11456	1451.45129	1209.01489	151.40056	1543.43140	1043.50574	499.87262	1187.74951	1061.78589	-143.48724	1168.43726	1110.13953	563.75964	954.70776	1261.49390	-123.94637	933.79987	1306.96777	335.63531	1019.78021	1142.13562	14.70795	1014.13867	1223.49426	144.31743	1043.10376	1001.45270	362.84811	574.90259	967.23328	27.57853	574.14954	1347.02783	296.02417	158.25836	660.48199	118.59119	88.50966	1446.91467	
285	2.840										41.42708	1682.77490	1222.90283	307.15588	1513.42822	1101.24268	0.82514	1511.63171	1119.76001	174.95166	1452.15320	1221.73120	148.02533	1542.26904	1054.98120	496.90009	1187.76733	1076.19641	-145.19453	1166.98962	1121.38904	560.02448	954.56287	1276.69775	-126.15413	931.46619	1317.34973	334.68118	1019.18964	1160.10950	11.78426	1014.83716	1236.03015	144.51558	1043.36670	1016.16931	366.00867	574.49457	987.51874	21.93521	572.30078	1357.61316	297.09235	167.30217	669.06165	118.69781	88.78287	1449.67346	
286	2.850										38.11495	1684.33093	1234.42578	305.20462	1513.83997	1115.17322	-2.24580	1511.41418	1130.27173	170.22357	1453.50012	1235.03235	145.90305	1542.89636	1068.02197	493.60699	1187.65186	1090.91675	-147.13606	1166.11438	1132.51587	555.79639	954.39087	1290.98193	-129.16896	929.94073	1328.22095	332.77277	1018.99536	1176.98889	8.42976	1016.05701	1247.85522	144.84982	1044.07239	1029.86621	369.41415	573.26636	1009.12549	17.08058	572.30249	1367.71130	297.96844	177.31618	678.85651	118.12444	89.73958	1451.97778	
287	2.860										34.30546	1685.99890	1245.92529	302.58701	1514.75513	1129.55798	-4.67532	1511.70068	1140.69812	167.57057	1454.32202	1247.95972	144.30995	1543.29004	1080.50098	490.25662	1188.02808	1106.00061	-148.59042	1165.68774	1143.82544	551.78973	954.20636	1305.76672	-131.36447	928.20477	1337.82959	330.72440	1018.42487	1195.01794	4.75266	1017.84497	1258.91394	145.53299	1045.31555	1043.70813	372.03729	571.30341	1031.88037	13.98028	572.75433	1377.71057	298.42325	187.77664	689.83209	117.77364	89.79426	1454.33887	
288	2.870										31.25965	1687.12891	1257.27026	300.51865	1516.07715	1143.89563	-7.35969	1511.75500	1150.91833	163.11401	1456.11462	1260.89465	141.47650	1544.20508	1093.08606	486.86218	1188.45593	1120.50903	-150.20918	1165.74475	1155.41125	546.86670	953.78644	1319.85303	-134.43076	926.99677	1348.54797	326.18542	1017.10284	1212.13831	0.45092	1019.85590	1269.61523	145.67128	1045.90857	1057.12146	374.04108	568.85706	1056.19067	12.43536	574.36029	1387.64453	298.72644	199.13698	701.95502	116.97652	90.61843	1455.69812	
289	2.880										28.01846	1687.89929	1268.64160	298.49609	1517.86389	1157.96594	-9.51412	1512.29846	1161.22717	159.35406	1457.61804	1273.75525	139.88487	1544.96851	1105.05115	483.03772	1189.60132	1136.37830	-151.93349	1165.78711	1166.24963	541.60162	952.77826	1333.20520	-136.66788	925.98981	1358.72412	323.75845	1017.12421	1228.41992	-3.87747	1022.05347	1279.40125	146.44916	1046.38367	1070.36646	375.73074	566.29602	1081.53186	10.58582	576.87787	1397.33484	299.21442	211.23637	716.21924	116.39158	91.38190	1456.73499	
290	2.890										24.04124	1689.05737	1280.14209	295.84018	1519.75110	1172.84778	-11.98869	1513.80518	1171.16101	155.66368	1459.16309	1286.24976	138.01189	1545.61621	1117.24573	479.00912	1190.07898	1150.81396	-153.20087	1167.05566	1178.38977	536.65314	952.95245	1347.80798	-139.18835	925.54553	1368.41052	320.12933	1016.59674	1244.84265	-8.45303	1024.50232	1288.51257	147.30807	1047.58093	1082.01282	376.72882	563.11865	1108.35693	8.39331	579.10492	1407.44897	298.94202	223.47710	732.61896	116.49992	91.36471	1457.34998	
291	2.900										21.36676	1690.35254	1291.64612	293.94482	1521.66711	1186.63843	-13.85301	1514.63733	1181.38452	151.95926	1460.70923	1298.60205	136.71243	1547.85828	1130.93774	475.03830	1191.36755	1164.76831	-154.63602	1168.12805	1189.59802	530.64697	951.84760	1360.72485	-142.01599	925.62292	1378.52148	316.16913	1016.98279	1261.48572	-13.63761	1027.11035	1297.25403	148.18045	1048.03455	1094.32117	377.08896	559.86438	1134.86523	5.31677	580.99811	1416.94812	298.70349	236.80830	750.80450	116.22063	91.75453	1458.60022	
292	2.910										17.65927	1692.13525	1303.00867	292.12631	1523.80164	1201.93237	-15.53777	1516.33142	1190.94641	148.74472	1462.03613	1310.50696	132.84511	1549.98621	1142.89575	471.44409	1193.32092	1180.22632	-156.42313	1168.97253	1199.79932	525.01251	951.65125	1374.63062	-144.70395	926.10535	1388.40405	312.55283	1017.44806	1277.27112	-18.68306	1029.71753	1305.64722	149.12782	1048.65588	1105.68787	377.65173	558.56769	1162.73376	2.26441	582.01965	1425.50806	297.97974	249.42886	771.75153	116.26775	91.87675	1459.59937	
293	2.920										14.62737	1693.65820	1314.02417	289.95419	1526.25793	1216.74866	-16.66501	1517.40808	1201.03113	145.29630	1463.46558	1322.82422	130.21397	1551.29163	1154.33301	467.40512	1194.15479	1195.06116	-157.64886	1170.68567	1210.70313	518.95953	950.85541	1388.55139	-147.08003	926.94171	1397.86511	308.60016	1018.14441	1291.53333	-23.28195	1031.75085	1313.74756	148.85300	1049.45569	1117.06238	377.81393	556.56921	1189.68494	-0.53649	583.14496	1432.71326	298.91678	261.25620	793.77997	116.07352	92.08173	1459.93823	
294	2.930										11.65236	1694.63293	1325.37720	288.58939	1527.50354	1229.24133	-18.79135	1519.53113	1210.49988	142.03973	1464.84802	1334.06555	130.18546	1553.35449	1165.86841	463.73483	1195.43433	1210.07104	-159.01750	1172.37830	1220.38660	512.54547	950.32379	1401.29004	-149.18713	928.04144	1407.67493	304.42572	1019.59204	1307.21204	-27.82302	1033.98608	1321.68347	149.44582	1050.87207	1128.93787	376.37189	555.69312	1217.00037	-2.45779	583.53363	1438.92993	301.87555	271.37308	815.88971	115.93671	92.85857	1460.21875	
295	2.940													285.99814	1531.15869	1245.37842	-20.11949	1521.46179	1220.08191	138.60043	1466.79944	1345.60071	130.59261	1555.48657	1177.24048	460.60440	1196.80872	1225.58472	-160.56422	1174.10327	1229.64734	505.69458	949.37201	1414.90759	-151.39047	929.93262	1416.83240	301.04807	1022.59705	1321.50696	-32.43687	1035.96057	1329.57935	148.32582	1052.66589	1139.98633	374.30191	555.80731	1244.02271	-3.50194	583.45801	1444.23340	305.66888	280.63089	837.08026	115.36471	92.93247	1460.69812	
296	2.950													283.72061	1532.93359	1258.22192	-21.94129	1523.61218	1229.22424	135.70145	1467.99060	1355.00366	126.76736	1558.76550	1188.39880	457.33060	1198.65833	1240.66064	-162.19873	1176.13525	1238.51636	498.74417	948.51001	1428.16260	-153.73528	931.98340	1426.57739	296.40729	1025.30249	1335.37756	-36.88273	1038.13440	1337.70337	148.88461	1054.62744	1149.92383	371.84744	556.63586	1271.09656	-3.78910	582.77203	1449.08630	310.96582	287.82364	858.05798	115.11402	93.08755	1461.20764	
297	2.960	94.77567	1673.07104	1474.65967										282.23578	1535.51355	1271.42944	-23.66648	1526.31592	1238.22266	132.16191	1470.49280	1365.81677	128.76006	1560.16895	1199.17859	454.50375	1200.07153	1255.25000	-163.55035	1178.26880	1247.20630	491.28183	947.91840	1440.88220	-156.24486	934.68988	1435.91895	292.91168	1028.57825	1348.61914	-40.38784	1039.90271	1346.07336	149.07814	1057.18445	1160.66711	368.31775	558.39581	1297.78516	-4.79759	582.76886	1453.67688	316.94641	293.24179	880.62036	115.07069	93.09705	1461.32361	
298	2.970	91.61381	1674.47058	1485.73779										280.49982	1537.63599	1284.00110	-25.33273	1529.03369	1246.79651	128.94310	1472.79492	1376.38074	127.19154	1563.99170	1210.10718	452.06424	1201.62012	1270.02014	-165.13969	1180.86499	1255.60742	484.02591	947.59021	1454.00916	-157.89500	937.34552	1444.26978	289.55212	1032.65698	1361.04346	-43.64480	1041.94263	1354.51538	147.58952	1059.27820	1172.21082	363.86978	560.19275	1324.97229	-6.20287	582.93719	1458.11108	322.58588	297.33209	905.16437	114.98744	93.09920	1461.37122	
299	2.980	87.71184	1676.02441	1497.10437										278.38220	1540.22925	1296.56128	-25.85124	1531.62903	1255.05859	125.79939	1475.34229	1386.73694	125.20084	1566.43823	1220.54492	449.93762	1204.05164	1285.72180	-166.52415	1183.71863	1263.72705	476.20020	946.97485	1465.81409	-159.94046	941.55499	1454.19824	285.70596	1036.70166	1374.71765	-47.59194	1044.30103	1362.97913	146.26517	1062.64600	1182.78345	359.29028	562.82068	1351.97046	-8.59009	583.07611	1461.99707	328.47687	299.47342	930.32623	115.09735	92.63520	1461.98633	
300	2.990	84.49734	1677.33801	1507.55286										276.83398	1542.92041	1308.75366	-27.20239	1534.54663	1263.05994	122.55817	1477.95691	1397.02393	124.04358	1569.19727	1230.89453	446.70691	1205.93286	1301.12805	-167.62862	1186.49487	1271.36743	468.66864	947.19928	1478.31934	-162.09482	944.75806	1461.34619	281.96371	1040.23816	1386.72607	-51.34782	1046.52405	1371.12988	146.64735	1065.04102	1192.65210	353.65259	564.87225	1378.38123	-10.42942	582.57263	1465.29443	332.66516	300.48550	955.51752	114.70653	93.17467	1461.37732	
